<?xml version="1.0" encoding="UTF-8"?>
<svg width="232px" height="133px" viewBox="0 0 232 133" version="1.1" xmlns="http://www.w3.org/2000/svg" xmlns:xlink="http://www.w3.org/1999/xlink">
    <title>atoms/img/ilustraciones/howto/caja_sobre</title>
    <defs>
        <polygon id="path-1" points="0.743259259 3.20503704 0.743259259 65.7307556 22.3837037 65.7307556 22.3837037 0.705451852"></polygon>
        <polygon id="path-3" points="0.172711111 0.704592593 65.2005926 0.704592593 65.2005926 65.7307556 0.172711111 65.7307556"></polygon>
        <polygon id="path-5" points="0.636711111 0.617807407 28.1441778 0.617807407 28.1441778 25.6256889 0.636711111 25.6256889"></polygon>
        <polygon id="path-7" points="0.17357037 2.75220741 0.17357037 51.9826074 17.6792593 51.9826074 17.6792593 0.250903704"></polygon>
        <polygon id="path-9" points="0.17442963 2.75220741 0.17442963 51.9826074 17.6792593 51.9826074 17.6792593 0.251762963"></polygon>
        <polygon id="path-11" points="0.658192593 0.250903704 52.3916148 0.250903704 52.3916148 51.9826074 0.658192593 51.9826074"></polygon>
        <polygon id="path-13" points="0.814577778 0.374637037 28.323763 0.374637037 28.323763 25.3825185 0.814577778 25.3825185"></polygon>
        <path d="M39.3978963,0.740681481 L2.65682963,0.781925926 C1.81819259,0.783644444 1.12820741,1.4805037 1.11617778,2.33976296 L1.11617778,2.33976296 L0.828977661,24.966637 C0.815437037,25.8155852 1.48651852,26.521037 2.32601481,26.5193217 L2.32601481,26.5193217 L39.0662222,26.4780741 C39.904,26.4763556 40.5939852,25.7674667 40.6042963,24.9219556 L40.6042963,24.9219556 L40.894885,2.29336296 C40.9067556,1.43754074 40.2348148,0.740681481 39.4013333,0.740681481 L39.4013333,0.740681481 C39.3996148,0.740681481 39.3996148,0.740681481 39.3978963,0.740681481 L39.3978963,0.740681481 Z" id="path-15"></path>
        <polygon id="path-17" points="0.77677037 2.88023704 1.88521481 8.43277037 12.8132741 6.25282963 11.7031111 0.697718519"></polygon>
        <polygon id="path-19" points="0.775911111 2.8810963 1.88607407 8.43191111 12.8132741 6.25197037 11.7022519 0.698577778"></polygon>
    </defs>
    <g id="UI-KIT" stroke="none" stroke-width="1" fill="none" fill-rule="evenodd">
        <g id="Correos_web_UIkit_54_Illustrations" transform="translate(-64.000000, -6654.000000)">
            <g id="Group" transform="translate(64.000000, 6648.000000)">
                <g id="Group-53" transform="translate(0.000000, 5.000000)">
                    <g id="Group-5" transform="translate(0.000000, 0.824889)">
                        <path d="M76.7921719,13.8853719 C21.5521126,-12.1793985 -46.9514726,54.943357 46.231757,113.561164 C139.413268,172.179831 272.247016,81.5417274 219.402572,23.0553867 C166.557268,-35.4309541 132.032231,39.9510015 76.7921719,13.8853719" id="Fill-1" fill="#F3F2F2"></path>
                        <path d="M40.3164444,110.411464 L185.531259,110.411464 C187.192207,110.411464 188.538667,109.065004 188.538667,107.404056 C188.538667,105.743108 187.192207,104.396649 185.531259,104.396649 L40.3164444,104.396649 C38.654637,104.396649 37.309037,105.743108 37.309037,107.404056 C37.309037,109.065004 38.654637,110.411464 40.3164444,110.411464" id="Fill-3" fill="#676767"></path>
                    </g>
                    <g id="Group-8" transform="translate(50.696296, 39.491556)">
                        <mask id="mask-2" fill="white">
                            <use xlink:href="#path-1"></use>
                        </mask>
                        <g id="Clip-7"></g>
                        <polygon id="Fill-6" fill="#C5BC8E" mask="url(#mask-2)" points="-6.61114074 73.0842963 29.7398222 73.0842963 29.7398222 -6.65152593 -6.61114074 -6.65152593"></polygon>
                    </g>
                    <polygon id="Fill-9" fill="#D9CA90" points="71.4912296 105.221452 136.51997 105.221452 136.51997 40.1952889 71.4912296 40.1952889"></polygon>
                    <g id="Group-13" transform="translate(71.318519, 39.491556)">
                        <mask id="mask-4" fill="white">
                            <use xlink:href="#path-3"></use>
                        </mask>
                        <g id="Clip-12"></g>
                        <polygon id="Fill-11" fill="#D9CA90" mask="url(#mask-4)" points="-7.18254815 73.0842963 72.5575704 73.0842963 72.5575704 -6.65152593 -7.18254815 -6.65152593"></polygon>
                    </g>
                    <g id="Group-16" transform="translate(85.925926, 39.491556)">
                        <mask id="mask-6" fill="white">
                            <use xlink:href="#path-5"></use>
                        </mask>
                        <g id="Clip-15"></g>
                        <polygon id="Fill-14" fill="#FFCD00" mask="url(#mask-6)" points="-6.71940741 32.9818074 35.5002963 32.9818074 35.5002963 -6.73659259 -6.71940741 -6.73659259"></polygon>
                    </g>
                    <polygon id="Fill-17" fill="#C5BC8E" points="106.72275 105.221538 124.228439 105.221538 124.228439 53.4915526 106.72275 55.991997"></polygon>
                    <g id="Group-21" transform="translate(106.548148, 53.239704)">
                        <mask id="mask-8" fill="white">
                            <use xlink:href="#path-7"></use>
                        </mask>
                        <g id="Clip-20"></g>
                        <polygon id="Fill-19" fill="#C5BC8E" mask="url(#mask-8)" points="-1022.79864 4356.43757 1095.50916 4356.43757 1095.50916 -2426.55846 -1022.79864 -2426.55846"></polygon>
                    </g>
                    <g id="Group-24" transform="translate(106.548148, 53.239704)">
                        <mask id="mask-10" fill="white">
                            <use xlink:href="#path-9"></use>
                        </mask>
                        <g id="Clip-23"></g>
                        <polygon id="Fill-22" fill="#C5BC8E" mask="url(#mask-10)" points="-7.17997037 59.3370074 25.0353778 59.3370074 25.0353778 -7.1034963 -7.17997037 -7.1034963"></polygon>
                    </g>
                    <polygon id="Fill-25" fill="#E1D39B" points="122.673867 105.221452 174.40643 105.221452 174.40643 53.4914667 122.673867 53.4914667"></polygon>
                    <g id="Group-29" transform="translate(122.014815, 53.239704)">
                        <mask id="mask-12" fill="white">
                            <use xlink:href="#path-11"></use>
                        </mask>
                        <g id="Clip-28"></g>
                        <polygon id="Fill-27" fill="#E1D39B" mask="url(#mask-12)" points="-6.69706667 59.3370074 59.7468741 59.3370074 59.7468741 -7.1034963 -6.69706667 -7.1034963"></polygon>
                    </g>
                    <g id="Group-32" transform="translate(135.762963, 53.239704)">
                        <mask id="mask-14" fill="white">
                            <use xlink:href="#path-13"></use>
                        </mask>
                        <g id="Clip-31"></g>
                        <polygon id="Fill-30" fill="#FFCD00" mask="url(#mask-14)" points="-6.54068148 32.7369185 35.678163 32.7369185 35.678163 -6.98148148 -6.54068148 -6.98148148"></polygon>
                    </g>
                    <g id="Group-35" transform="translate(111.703704, 79.017481)">
                        <mask id="mask-16" fill="white">
                            <use xlink:href="#path-15"></use>
                        </mask>
                        <g id="Clip-34"></g>
                        <polygon id="Fill-33" fill="#FFFFFF" mask="url(#mask-16)" points="-0.992616296 -18.0012237 55.7795022 -2.45550519 42.7136059 45.2600207 -14.0585126 29.713443"></polygon>
                    </g>
                    <g id="Group-46" transform="translate(84.207407, 80.736000)">
                        <line x1="46.1685156" y1="14.4416563" x2="63.5427378" y2="14.4347822" id="Stroke-36" stroke="#676767" stroke-linecap="round"></line>
                        <line x1="46.2012533" y1="17.2003081" x2="63.5754756" y2="17.1934341" id="Stroke-38" stroke="#676767" stroke-linecap="round"></line>
                        <line x1="46.2347644" y1="19.9941037" x2="57.558083" y2="19.9898074" id="Stroke-40" stroke="#676767" stroke-linecap="round"></line>
                        <polygon id="Fill-42" fill="#1ECAD3" points="66.348477 6.85938074 61.7772178 6.72705481 61.9490696 0.794728889 66.5194696 0.927054815"></polygon>
                        <polygon id="Fill-44" fill="#F8E57F" points="12.8126726 16.5629956 1.88547259 18.7446548 0.776168889 13.190403 11.7033689 11.0087437"></polygon>
                    </g>
                    <g id="Group-49" transform="translate(84.207407, 91.047111)">
                        <mask id="mask-18" fill="white">
                            <use xlink:href="#path-17"></use>
                        </mask>
                        <g id="Clip-48"></g>
                        <polygon id="Fill-47" fill="#F8E57F" mask="url(#mask-18)" points="-992.032859 4321.75013 1126.27407 4321.75013 1126.27407 -2461.2459 -992.032859 -2461.2459"></polygon>
                    </g>
                    <g id="Group-52" transform="translate(84.207407, 91.047111)">
                        <mask id="mask-20" fill="white">
                            <use xlink:href="#path-19"></use>
                        </mask>
                        <g id="Clip-51"></g>
                        <polygon id="Fill-50" fill="#F8E57F" mask="url(#mask-20)" points="-6.57934815 15.7880296 20.1676741 15.7880296 20.1676741 -6.65754074 -6.57934815 -6.65754074"></polygon>
                    </g>
                </g>
            </g>
        </g>
    </g>
</svg>